<svg width="932" height="546" viewBox="0 0 932 546" fill="none" xmlns="http://www.w3.org/2000/svg">
<g clip-path="url(#clip0_3245_5405)">
<rect width="932" height="545.827" fill="#0F1216"/>
<rect x="-35.4788" y="-47.7599" width="47.7599" height="47.7599" stroke="#4B7FCD" stroke-opacity="0.01" stroke-width="0.955198"/>
<rect x="12.2812" y="-47.7599" width="47.7599" height="47.7599" stroke="#4B7FCD" stroke-opacity="0.01" stroke-width="0.955198"/>
<rect x="60.041" y="-47.7599" width="47.7599" height="47.7599" stroke="#4B7FCD" stroke-opacity="0.01" stroke-width="0.955198"/>
<rect x="107.801" y="-47.7599" width="47.7599" height="47.7599" stroke="#4B7FCD" stroke-opacity="0.01" stroke-width="0.955198"/>
<rect x="155.561" y="-47.7599" width="47.7599" height="47.7599" stroke="#4B7FCD" stroke-opacity="0.01" stroke-width="0.955198"/>
<rect x="203.321" y="-47.7599" width="47.7599" height="47.7599" stroke="#4B7FCD" stroke-opacity="0.01" stroke-width="0.955198"/>
<rect x="251.081" y="-47.7599" width="47.7599" height="47.7599" stroke="#4B7FCD" stroke-opacity="0.01" stroke-width="0.955198"/>
<rect x="298.84" y="-47.7599" width="47.7599" height="47.7599" stroke="#4B7FCD" stroke-opacity="0.01" stroke-width="0.955198"/>
<rect x="346.6" y="-47.7599" width="47.7599" height="47.7599" stroke="#4B7FCD" stroke-opacity="0.01" stroke-width="0.955198"/>
<rect x="394.36" y="-47.7599" width="47.7599" height="47.7599" stroke="#4B7FCD" stroke-opacity="0.01" stroke-width="0.955198"/>
<rect x="442.12" y="-47.7599" width="47.7599" height="47.7599" stroke="#4B7FCD" stroke-opacity="0.01" stroke-width="0.955198"/>
<rect x="489.88" y="-47.7599" width="47.7599" height="47.7599" stroke="#4B7FCD" stroke-opacity="0.01" stroke-width="0.955198"/>
<rect x="537.64" y="-47.7599" width="47.7599" height="47.7599" stroke="#4B7FCD" stroke-opacity="0.01" stroke-width="0.955198"/>
<rect x="585.4" y="-47.7599" width="47.7599" height="47.7599" stroke="#4B7FCD" stroke-opacity="0.01" stroke-width="0.955198"/>
<rect x="633.16" y="-47.7599" width="47.7599" height="47.7599" stroke="#4B7FCD" stroke-opacity="0.01" stroke-width="0.955198"/>
<rect x="680.92" y="-47.7599" width="47.7599" height="47.7599" stroke="#4B7FCD" stroke-opacity="0.01" stroke-width="0.955198"/>
<rect x="728.679" y="-47.7599" width="47.7599" height="47.7599" stroke="#4B7FCD" stroke-opacity="0.01" stroke-width="0.955198"/>
<rect x="776.439" y="-47.7599" width="47.7599" height="47.7599" stroke="#4B7FCD" stroke-opacity="0.01" stroke-width="0.955198"/>
<rect x="824.199" y="-47.7599" width="47.7599" height="47.7599" stroke="#4B7FCD" stroke-opacity="0.01" stroke-width="0.955198"/>
<rect x="871.959" y="-47.7599" width="47.7599" height="47.7599" stroke="#4B7FCD" stroke-opacity="0.01" stroke-width="0.955198"/>
<rect x="919.719" y="-47.7599" width="47.7599" height="47.7599" stroke="#4B7FCD" stroke-opacity="0.01" stroke-width="0.955198"/>
<rect x="-35.4788" y="0.00012207" width="47.7599" height="47.7599" stroke="#4B7FCD" stroke-opacity="0.01" stroke-width="0.955198"/>
<rect x="12.2812" y="0.00012207" width="47.7599" height="47.7599" stroke="#4B7FCD" stroke-opacity="0.01" stroke-width="0.955198"/>
<rect x="60.041" y="0.00012207" width="47.7599" height="47.7599" fill="#4B7FCD" fill-opacity="0.02" stroke="#4B7FCD" stroke-opacity="0.01" stroke-width="0.955198"/>
<rect x="107.801" y="0.00012207" width="47.7599" height="47.7599" stroke="#4B7FCD" stroke-opacity="0.01" stroke-width="0.955198"/>
<rect x="155.561" y="0.00012207" width="47.7599" height="47.7599" stroke="#4B7FCD" stroke-opacity="0.01" stroke-width="0.955198"/>
<rect x="203.321" y="0.00012207" width="47.7599" height="47.7599" stroke="#4B7FCD" stroke-opacity="0.01" stroke-width="0.955198"/>
<rect x="251.081" y="0.00012207" width="47.7599" height="47.7599" stroke="#4B7FCD" stroke-opacity="0.01" stroke-width="0.955198"/>
<rect x="298.84" y="0.00012207" width="47.7599" height="47.7599" stroke="#4B7FCD" stroke-opacity="0.01" stroke-width="0.955198"/>
<rect x="346.6" y="0.00012207" width="47.7599" height="47.7599" stroke="#4B7FCD" stroke-opacity="0.01" stroke-width="0.955198"/>
<rect x="394.36" y="0.00012207" width="47.7599" height="47.7599" fill="#4B7FCD" fill-opacity="0.02" stroke="#4B7FCD" stroke-opacity="0.01" stroke-width="0.955198"/>
<rect x="442.12" y="0.00012207" width="47.7599" height="47.7599" stroke="#4B7FCD" stroke-opacity="0.01" stroke-width="0.955198"/>
<rect x="489.88" y="0.00012207" width="47.7599" height="47.7599" stroke="#4B7FCD" stroke-opacity="0.01" stroke-width="0.955198"/>
<rect x="537.64" y="0.00012207" width="47.7599" height="47.7599" stroke="#4B7FCD" stroke-opacity="0.01" stroke-width="0.955198"/>
<rect x="585.4" y="0.00012207" width="47.7599" height="47.7599" stroke="#4B7FCD" stroke-opacity="0.01" stroke-width="0.955198"/>
<rect x="633.16" y="0.00012207" width="47.7599" height="47.7599" stroke="#4B7FCD" stroke-opacity="0.01" stroke-width="0.955198"/>
<rect x="680.92" y="0.00012207" width="47.7599" height="47.7599" stroke="#4B7FCD" stroke-opacity="0.01" stroke-width="0.955198"/>
<rect x="728.679" y="0.00012207" width="47.7599" height="47.7599" stroke="#4B7FCD" stroke-opacity="0.01" stroke-width="0.955198"/>
<rect x="776.439" y="0.00012207" width="47.7599" height="47.7599" stroke="#4B7FCD" stroke-opacity="0.01" stroke-width="0.955198"/>
<rect x="824.199" y="0.00012207" width="47.7599" height="47.7599" stroke="#4B7FCD" stroke-opacity="0.01" stroke-width="0.955198"/>
<rect x="871.959" y="0.00012207" width="47.7599" height="47.7599" stroke="#4B7FCD" stroke-opacity="0.01" stroke-width="0.955198"/>
<rect x="919.719" y="0.00012207" width="47.7599" height="47.7599" stroke="#4B7FCD" stroke-opacity="0.01" stroke-width="0.955198"/>
<rect x="-35.4788" y="47.7601" width="47.7599" height="47.7599" stroke="#4B7FCD" stroke-opacity="0.01" stroke-width="0.955198"/>
<rect x="12.2812" y="47.7601" width="47.7599" height="47.7599" stroke="#4B7FCD" stroke-opacity="0.01" stroke-width="0.955198"/>
<rect x="60.041" y="47.7601" width="47.7599" height="47.7599" stroke="#4B7FCD" stroke-opacity="0.01" stroke-width="0.955198"/>
<rect x="107.801" y="47.7601" width="47.7599" height="47.7599" stroke="#4B7FCD" stroke-opacity="0.01" stroke-width="0.955198"/>
<rect x="155.561" y="47.7601" width="47.7599" height="47.7599" stroke="#4B7FCD" stroke-opacity="0.01" stroke-width="0.955198"/>
<rect x="203.321" y="47.7601" width="47.7599" height="47.7599" stroke="#4B7FCD" stroke-opacity="0.01" stroke-width="0.955198"/>
<rect x="251.081" y="47.7601" width="47.7599" height="47.7599" stroke="#4B7FCD" stroke-opacity="0.01" stroke-width="0.955198"/>
<rect x="298.84" y="47.7601" width="47.7599" height="47.7599" stroke="#4B7FCD" stroke-opacity="0.01" stroke-width="0.955198"/>
<rect x="346.6" y="47.7601" width="47.7599" height="47.7599" stroke="#4B7FCD" stroke-opacity="0.01" stroke-width="0.955198"/>
<rect x="394.36" y="47.7601" width="47.7599" height="47.7599" stroke="#4B7FCD" stroke-opacity="0.01" stroke-width="0.955198"/>
<rect x="442.12" y="47.7601" width="47.7599" height="47.7599" stroke="#4B7FCD" stroke-opacity="0.01" stroke-width="0.955198"/>
<rect x="489.88" y="47.7601" width="47.7599" height="47.7599" stroke="#4B7FCD" stroke-opacity="0.01" stroke-width="0.955198"/>
<rect x="537.64" y="47.7601" width="47.7599" height="47.7599" stroke="#4B7FCD" stroke-opacity="0.01" stroke-width="0.955198"/>
<rect x="585.4" y="47.7601" width="47.7599" height="47.7599" stroke="#4B7FCD" stroke-opacity="0.01" stroke-width="0.955198"/>
<rect x="633.16" y="47.7601" width="47.7599" height="47.7599" stroke="#4B7FCD" stroke-opacity="0.01" stroke-width="0.955198"/>
<rect x="680.92" y="47.7601" width="47.7599" height="47.7599" stroke="#4B7FCD" stroke-opacity="0.01" stroke-width="0.955198"/>
<rect x="728.679" y="47.7601" width="47.7599" height="47.7599" fill="#4B7FCD" fill-opacity="0.02" stroke="#4B7FCD" stroke-opacity="0.01" stroke-width="0.955198"/>
<rect x="776.439" y="47.7601" width="47.7599" height="47.7599" stroke="#4B7FCD" stroke-opacity="0.01" stroke-width="0.955198"/>
<rect x="824.199" y="47.7601" width="47.7599" height="47.7599" stroke="#4B7FCD" stroke-opacity="0.01" stroke-width="0.955198"/>
<rect x="871.959" y="47.7601" width="47.7599" height="47.7599" stroke="#4B7FCD" stroke-opacity="0.01" stroke-width="0.955198"/>
<rect x="919.719" y="47.7601" width="47.7599" height="47.7599" stroke="#4B7FCD" stroke-opacity="0.01" stroke-width="0.955198"/>
<rect x="-35.4788" y="95.5199" width="47.7599" height="47.7599" stroke="#4B7FCD" stroke-opacity="0.01" stroke-width="0.955198"/>
<rect x="12.2812" y="95.52" width="47.7599" height="47.7599" stroke="#4B7FCD" stroke-opacity="0.01" stroke-width="0.955198"/>
<rect x="60.041" y="95.5199" width="47.7599" height="47.7599" stroke="#4B7FCD" stroke-opacity="0.01" stroke-width="0.955198"/>
<rect x="107.801" y="95.52" width="47.7599" height="47.7599" stroke="#4B7FCD" stroke-opacity="0.01" stroke-width="0.955198"/>
<rect x="155.561" y="95.52" width="47.7599" height="47.7599" stroke="#4B7FCD" stroke-opacity="0.01" stroke-width="0.955198"/>
<rect x="203.321" y="95.52" width="47.7599" height="47.7599" stroke="#4B7FCD" stroke-opacity="0.01" stroke-width="0.955198"/>
<rect x="251.081" y="95.52" width="47.7599" height="47.7599" stroke="#4B7FCD" stroke-opacity="0.01" stroke-width="0.955198"/>
<rect x="298.84" y="95.5199" width="47.7599" height="47.7599" stroke="#4B7FCD" stroke-opacity="0.01" stroke-width="0.955198"/>
<rect x="346.6" y="95.52" width="47.7599" height="47.7599" stroke="#4B7FCD" stroke-opacity="0.01" stroke-width="0.955198"/>
<rect x="394.36" y="95.52" width="47.7599" height="47.7599" stroke="#4B7FCD" stroke-opacity="0.01" stroke-width="0.955198"/>
<rect x="442.12" y="95.52" width="47.7599" height="47.7599" stroke="#4B7FCD" stroke-opacity="0.01" stroke-width="0.955198"/>
<rect x="489.88" y="95.52" width="47.7599" height="47.7599" stroke="#4B7FCD" stroke-opacity="0.01" stroke-width="0.955198"/>
<rect x="537.64" y="95.52" width="47.7599" height="47.7599" stroke="#4B7FCD" stroke-opacity="0.01" stroke-width="0.955198"/>
<rect x="585.4" y="95.5199" width="47.7599" height="47.7599" stroke="#4B7FCD" stroke-opacity="0.01" stroke-width="0.955198"/>
<rect x="633.16" y="95.5199" width="47.7599" height="47.7599" stroke="#4B7FCD" stroke-opacity="0.01" stroke-width="0.955198"/>
<rect x="680.92" y="95.52" width="47.7599" height="47.7599" stroke="#4B7FCD" stroke-opacity="0.01" stroke-width="0.955198"/>
<rect x="728.679" y="95.52" width="47.7599" height="47.7599" stroke="#4B7FCD" stroke-opacity="0.01" stroke-width="0.955198"/>
<rect x="776.439" y="95.52" width="47.7599" height="47.7599" stroke="#4B7FCD" stroke-opacity="0.01" stroke-width="0.955198"/>
<rect x="824.199" y="95.5199" width="47.7599" height="47.7599" stroke="#4B7FCD" stroke-opacity="0.01" stroke-width="0.955198"/>
<rect x="871.959" y="95.52" width="47.7599" height="47.7599" stroke="#4B7FCD" stroke-opacity="0.01" stroke-width="0.955198"/>
<rect x="919.719" y="95.5199" width="47.7599" height="47.7599" stroke="#4B7FCD" stroke-opacity="0.01" stroke-width="0.955198"/>
<rect x="-35.4788" y="143.28" width="47.7599" height="47.7599" stroke="#4B7FCD" stroke-opacity="0.01" stroke-width="0.955198"/>
<rect x="12.2812" y="143.28" width="47.7599" height="47.7599" stroke="#4B7FCD" stroke-opacity="0.01" stroke-width="0.955198"/>
<rect x="60.041" y="143.28" width="47.7599" height="47.7599" stroke="#4B7FCD" stroke-opacity="0.01" stroke-width="0.955198"/>
<rect x="107.801" y="143.28" width="47.7599" height="47.7599" fill="#4B7FCD" fill-opacity="0.02" stroke="#4B7FCD" stroke-opacity="0.01" stroke-width="0.955198"/>
<rect x="155.561" y="143.28" width="47.7599" height="47.7599" stroke="#4B7FCD" stroke-opacity="0.01" stroke-width="0.955198"/>
<rect x="203.321" y="143.28" width="47.7599" height="47.7599" stroke="#4B7FCD" stroke-opacity="0.01" stroke-width="0.955198"/>
<rect x="251.081" y="143.28" width="47.7599" height="47.7599" stroke="#4B7FCD" stroke-opacity="0.01" stroke-width="0.955198"/>
<rect x="298.84" y="143.28" width="47.7599" height="47.7599" stroke="#4B7FCD" stroke-opacity="0.01" stroke-width="0.955198"/>
<rect x="346.6" y="143.28" width="47.7599" height="47.7599" stroke="#4B7FCD" stroke-opacity="0.01" stroke-width="0.955198"/>
<rect x="394.36" y="143.28" width="47.7599" height="47.7599" stroke="#4B7FCD" stroke-opacity="0.01" stroke-width="0.955198"/>
<rect x="442.12" y="143.28" width="47.7599" height="47.7599" stroke="#4B7FCD" stroke-opacity="0.01" stroke-width="0.955198"/>
<rect x="489.88" y="143.28" width="47.7599" height="47.7599" stroke="#4B7FCD" stroke-opacity="0.01" stroke-width="0.955198"/>
<rect x="537.64" y="143.28" width="47.7599" height="47.7599" fill="#4B7FCD" fill-opacity="0.02" stroke="#4B7FCD" stroke-opacity="0.01" stroke-width="0.955198"/>
<rect x="585.4" y="143.28" width="47.7599" height="47.7599" stroke="#4B7FCD" stroke-opacity="0.01" stroke-width="0.955198"/>
<rect x="633.16" y="143.28" width="47.7599" height="47.7599" stroke="#4B7FCD" stroke-opacity="0.01" stroke-width="0.955198"/>
<rect x="680.92" y="143.28" width="47.7599" height="47.7599" stroke="#4B7FCD" stroke-opacity="0.01" stroke-width="0.955198"/>
<rect x="728.679" y="143.28" width="47.7599" height="47.7599" stroke="#4B7FCD" stroke-opacity="0.01" stroke-width="0.955198"/>
<rect x="776.439" y="143.28" width="47.7599" height="47.7599" stroke="#4B7FCD" stroke-opacity="0.01" stroke-width="0.955198"/>
<rect x="824.199" y="143.28" width="47.7599" height="47.7599" stroke="#4B7FCD" stroke-opacity="0.01" stroke-width="0.955198"/>
<rect x="871.959" y="143.28" width="47.7599" height="47.7599" stroke="#4B7FCD" stroke-opacity="0.01" stroke-width="0.955198"/>
<rect x="919.719" y="143.28" width="47.7599" height="47.7599" stroke="#4B7FCD" stroke-opacity="0.01" stroke-width="0.955198"/>
<rect x="-35.4788" y="191.04" width="47.7599" height="47.7599" stroke="#4B7FCD" stroke-opacity="0.01" stroke-width="0.955198"/>
<rect x="12.2812" y="191.04" width="47.7599" height="47.7599" stroke="#4B7FCD" stroke-opacity="0.01" stroke-width="0.955198"/>
<rect x="60.041" y="191.04" width="47.7599" height="47.7599" stroke="#4B7FCD" stroke-opacity="0.01" stroke-width="0.955198"/>
<rect x="107.801" y="191.04" width="47.7599" height="47.7599" stroke="#4B7FCD" stroke-opacity="0.01" stroke-width="0.955198"/>
<rect x="155.561" y="191.04" width="47.7599" height="47.7599" stroke="#4B7FCD" stroke-opacity="0.01" stroke-width="0.955198"/>
<rect x="203.321" y="191.04" width="47.7599" height="47.7599" stroke="#4B7FCD" stroke-opacity="0.01" stroke-width="0.955198"/>
<rect x="251.081" y="191.04" width="47.7599" height="47.7599" stroke="#4B7FCD" stroke-opacity="0.01" stroke-width="0.955198"/>
<rect x="298.84" y="191.04" width="47.7599" height="47.7599" stroke="#4B7FCD" stroke-opacity="0.01" stroke-width="0.955198"/>
<rect x="346.6" y="191.04" width="47.7599" height="47.7599" stroke="#4B7FCD" stroke-opacity="0.01" stroke-width="0.955198"/>
<rect x="394.36" y="191.04" width="47.7599" height="47.7599" stroke="#4B7FCD" stroke-opacity="0.01" stroke-width="0.955198"/>
<rect x="442.12" y="191.04" width="47.7599" height="47.7599" stroke="#4B7FCD" stroke-opacity="0.01" stroke-width="0.955198"/>
<rect x="489.88" y="191.04" width="47.7599" height="47.7599" stroke="#4B7FCD" stroke-opacity="0.01" stroke-width="0.955198"/>
<rect x="537.64" y="191.04" width="47.7599" height="47.7599" stroke="#4B7FCD" stroke-opacity="0.01" stroke-width="0.955198"/>
<rect x="585.4" y="191.04" width="47.7599" height="47.7599" stroke="#4B7FCD" stroke-opacity="0.01" stroke-width="0.955198"/>
<rect x="633.16" y="191.04" width="47.7599" height="47.7599" stroke="#4B7FCD" stroke-opacity="0.01" stroke-width="0.955198"/>
<rect x="680.92" y="191.04" width="47.7599" height="47.7599" stroke="#4B7FCD" stroke-opacity="0.01" stroke-width="0.955198"/>
<rect x="728.679" y="191.04" width="47.7599" height="47.7599" stroke="#4B7FCD" stroke-opacity="0.01" stroke-width="0.955198"/>
<rect x="776.439" y="191.04" width="47.7599" height="47.7599" stroke="#4B7FCD" stroke-opacity="0.01" stroke-width="0.955198"/>
<rect x="824.199" y="191.04" width="47.7599" height="47.7599" fill="#4B7FCD" fill-opacity="0.02" stroke="#4B7FCD" stroke-opacity="0.01" stroke-width="0.955198"/>
<rect x="871.959" y="191.04" width="47.7599" height="47.7599" stroke="#4B7FCD" stroke-opacity="0.01" stroke-width="0.955198"/>
<rect x="919.719" y="191.04" width="47.7599" height="47.7599" stroke="#4B7FCD" stroke-opacity="0.01" stroke-width="0.955198"/>
<rect x="-35.4788" y="238.799" width="47.7599" height="47.7599" stroke="#4B7FCD" stroke-opacity="0.01" stroke-width="0.955198"/>
<rect x="12.2812" y="238.799" width="47.7599" height="47.7599" stroke="#4B7FCD" stroke-opacity="0.01" stroke-width="0.955198"/>
<rect x="60.041" y="238.799" width="47.7599" height="47.7599" stroke="#4B7FCD" stroke-opacity="0.01" stroke-width="0.955198"/>
<rect x="107.801" y="238.799" width="47.7599" height="47.7599" stroke="#4B7FCD" stroke-opacity="0.01" stroke-width="0.955198"/>
<rect x="155.561" y="238.799" width="47.7599" height="47.7599" stroke="#4B7FCD" stroke-opacity="0.01" stroke-width="0.955198"/>
<rect x="203.321" y="238.799" width="47.7599" height="47.7599" stroke="#4B7FCD" stroke-opacity="0.01" stroke-width="0.955198"/>
<rect x="251.081" y="238.799" width="47.7599" height="47.7599" stroke="#4B7FCD" stroke-opacity="0.01" stroke-width="0.955198"/>
<rect x="298.84" y="238.799" width="47.7599" height="47.7599" stroke="#4B7FCD" stroke-opacity="0.01" stroke-width="0.955198"/>
<rect x="346.6" y="238.799" width="47.7599" height="47.7599" stroke="#4B7FCD" stroke-opacity="0.01" stroke-width="0.955198"/>
<rect x="394.36" y="238.799" width="47.7599" height="47.7599" stroke="#4B7FCD" stroke-opacity="0.01" stroke-width="0.955198"/>
<rect x="442.12" y="238.799" width="47.7599" height="47.7599" stroke="#4B7FCD" stroke-opacity="0.01" stroke-width="0.955198"/>
<rect x="489.88" y="238.799" width="47.7599" height="47.7599" stroke="#4B7FCD" stroke-opacity="0.01" stroke-width="0.955198"/>
<rect x="537.64" y="238.799" width="47.7599" height="47.7599" stroke="#4B7FCD" stroke-opacity="0.01" stroke-width="0.955198"/>
<rect x="585.4" y="238.799" width="47.7599" height="47.7599" stroke="#4B7FCD" stroke-opacity="0.01" stroke-width="0.955198"/>
<rect x="633.16" y="238.799" width="47.7599" height="47.7599" stroke="#4B7FCD" stroke-opacity="0.01" stroke-width="0.955198"/>
<rect x="680.92" y="238.799" width="47.7599" height="47.7599" stroke="#4B7FCD" stroke-opacity="0.01" stroke-width="0.955198"/>
<rect x="728.679" y="238.799" width="47.7599" height="47.7599" stroke="#4B7FCD" stroke-opacity="0.01" stroke-width="0.955198"/>
<rect x="776.439" y="238.799" width="47.7599" height="47.7599" stroke="#4B7FCD" stroke-opacity="0.01" stroke-width="0.955198"/>
<rect x="824.199" y="238.799" width="47.7599" height="47.7599" stroke="#4B7FCD" stroke-opacity="0.01" stroke-width="0.955198"/>
<rect x="871.959" y="238.799" width="47.7599" height="47.7599" stroke="#4B7FCD" stroke-opacity="0.01" stroke-width="0.955198"/>
<rect x="919.719" y="238.799" width="47.7599" height="47.7599" stroke="#4B7FCD" stroke-opacity="0.01" stroke-width="0.955198"/>
<rect x="-35.4788" y="286.559" width="47.7599" height="47.7599" stroke="#4B7FCD" stroke-opacity="0.01" stroke-width="0.955198"/>
<rect x="12.2812" y="286.559" width="47.7599" height="47.7599" stroke="#4B7FCD" stroke-opacity="0.01" stroke-width="0.955198"/>
<rect x="60.041" y="286.559" width="47.7599" height="47.7599" stroke="#4B7FCD" stroke-opacity="0.01" stroke-width="0.955198"/>
<rect x="107.801" y="286.559" width="47.7599" height="47.7599" stroke="#4B7FCD" stroke-opacity="0.01" stroke-width="0.955198"/>
<rect x="155.561" y="286.559" width="47.7599" height="47.7599" stroke="#4B7FCD" stroke-opacity="0.01" stroke-width="0.955198"/>
<rect x="203.321" y="286.559" width="47.7599" height="47.7599" stroke="#4B7FCD" stroke-opacity="0.01" stroke-width="0.955198"/>
<rect x="251.081" y="286.559" width="47.7599" height="47.7599" stroke="#4B7FCD" stroke-opacity="0.01" stroke-width="0.955198"/>
<rect x="298.84" y="286.559" width="47.7599" height="47.7599" stroke="#4B7FCD" stroke-opacity="0.01" stroke-width="0.955198"/>
<rect x="346.6" y="286.559" width="47.7599" height="47.7599" fill="#4B7FCD" fill-opacity="0.02" stroke="#4B7FCD" stroke-opacity="0.01" stroke-width="0.955198"/>
<rect x="394.36" y="286.559" width="47.7599" height="47.7599" stroke="#4B7FCD" stroke-opacity="0.01" stroke-width="0.955198"/>
<rect x="442.12" y="286.559" width="47.7599" height="47.7599" stroke="#4B7FCD" stroke-opacity="0.01" stroke-width="0.955198"/>
<rect x="489.88" y="286.559" width="47.7599" height="47.7599" stroke="#4B7FCD" stroke-opacity="0.01" stroke-width="0.955198"/>
<rect x="537.64" y="286.559" width="47.7599" height="47.7599" stroke="#4B7FCD" stroke-opacity="0.01" stroke-width="0.955198"/>
<rect x="585.4" y="286.559" width="47.7599" height="47.7599" stroke="#4B7FCD" stroke-opacity="0.01" stroke-width="0.955198"/>
<rect x="633.16" y="286.559" width="47.7599" height="47.7599" stroke="#4B7FCD" stroke-opacity="0.01" stroke-width="0.955198"/>
<rect x="680.92" y="286.559" width="47.7599" height="47.7599" stroke="#4B7FCD" stroke-opacity="0.01" stroke-width="0.955198"/>
<rect x="728.679" y="286.559" width="47.7599" height="47.7599" stroke="#4B7FCD" stroke-opacity="0.01" stroke-width="0.955198"/>
<rect x="776.439" y="286.559" width="47.7599" height="47.7599" stroke="#4B7FCD" stroke-opacity="0.01" stroke-width="0.955198"/>
<rect x="824.199" y="286.559" width="47.7599" height="47.7599" stroke="#4B7FCD" stroke-opacity="0.01" stroke-width="0.955198"/>
<rect x="871.959" y="286.559" width="47.7599" height="47.7599" stroke="#4B7FCD" stroke-opacity="0.01" stroke-width="0.955198"/>
<rect x="919.719" y="286.559" width="47.7599" height="47.7599" stroke="#4B7FCD" stroke-opacity="0.01" stroke-width="0.955198"/>
<rect x="-35.4788" y="334.319" width="47.7599" height="47.7599" stroke="#4B7FCD" stroke-opacity="0.01" stroke-width="0.955198"/>
<rect x="12.2812" y="334.319" width="47.7599" height="47.7599" stroke="#4B7FCD" stroke-opacity="0.01" stroke-width="0.955198"/>
<rect x="60.041" y="334.319" width="47.7599" height="47.7599" stroke="#4B7FCD" stroke-opacity="0.01" stroke-width="0.955198"/>
<rect x="107.801" y="334.319" width="47.7599" height="47.7599" stroke="#4B7FCD" stroke-opacity="0.01" stroke-width="0.955198"/>
<rect x="155.561" y="334.319" width="47.7599" height="47.7599" fill="#4B7FCD" fill-opacity="0.02" stroke="#4B7FCD" stroke-opacity="0.01" stroke-width="0.955198"/>
<rect x="203.321" y="334.319" width="47.7599" height="47.7599" stroke="#4B7FCD" stroke-opacity="0.01" stroke-width="0.955198"/>
<rect x="251.081" y="334.319" width="47.7599" height="47.7599" stroke="#4B7FCD" stroke-opacity="0.01" stroke-width="0.955198"/>
<rect x="298.84" y="334.319" width="47.7599" height="47.7599" stroke="#4B7FCD" stroke-opacity="0.01" stroke-width="0.955198"/>
<rect x="346.6" y="334.319" width="47.7599" height="47.7599" stroke="#4B7FCD" stroke-opacity="0.01" stroke-width="0.955198"/>
<rect x="394.36" y="334.319" width="47.7599" height="47.7599" stroke="#4B7FCD" stroke-opacity="0.01" stroke-width="0.955198"/>
<rect x="442.12" y="334.319" width="47.7599" height="47.7599" stroke="#4B7FCD" stroke-opacity="0.01" stroke-width="0.955198"/>
<rect x="489.88" y="334.319" width="47.7599" height="47.7599" stroke="#4B7FCD" stroke-opacity="0.01" stroke-width="0.955198"/>
<rect x="537.64" y="334.319" width="47.7599" height="47.7599" stroke="#4B7FCD" stroke-opacity="0.01" stroke-width="0.955198"/>
<rect x="585.4" y="334.319" width="47.7599" height="47.7599" stroke="#4B7FCD" stroke-opacity="0.01" stroke-width="0.955198"/>
<rect x="633.16" y="334.319" width="47.7599" height="47.7599" stroke="#4B7FCD" stroke-opacity="0.01" stroke-width="0.955198"/>
<rect x="680.92" y="334.319" width="47.7599" height="47.7599" stroke="#4B7FCD" stroke-opacity="0.01" stroke-width="0.955198"/>
<rect x="728.679" y="334.319" width="47.7599" height="47.7599" stroke="#4B7FCD" stroke-opacity="0.01" stroke-width="0.955198"/>
<rect x="776.439" y="334.319" width="47.7599" height="47.7599" stroke="#4B7FCD" stroke-opacity="0.01" stroke-width="0.955198"/>
<rect x="824.199" y="334.319" width="47.7599" height="47.7599" stroke="#4B7FCD" stroke-opacity="0.01" stroke-width="0.955198"/>
<rect x="871.959" y="334.319" width="47.7599" height="47.7599" stroke="#4B7FCD" stroke-opacity="0.01" stroke-width="0.955198"/>
<rect x="919.719" y="334.319" width="47.7599" height="47.7599" stroke="#4B7FCD" stroke-opacity="0.01" stroke-width="0.955198"/>
<rect x="-35.4788" y="382.079" width="47.7599" height="47.7599" stroke="#4B7FCD" stroke-opacity="0.01" stroke-width="0.955198"/>
<rect x="12.2812" y="382.079" width="47.7599" height="47.7599" stroke="#4B7FCD" stroke-opacity="0.01" stroke-width="0.955198"/>
<rect x="60.041" y="382.079" width="47.7599" height="47.7599" stroke="#4B7FCD" stroke-opacity="0.01" stroke-width="0.955198"/>
<rect x="107.801" y="382.079" width="47.7599" height="47.7599" stroke="#4B7FCD" stroke-opacity="0.01" stroke-width="0.955198"/>
<rect x="155.561" y="382.079" width="47.7599" height="47.7599" stroke="#4B7FCD" stroke-opacity="0.01" stroke-width="0.955198"/>
<rect x="203.321" y="382.079" width="47.7599" height="47.7599" stroke="#4B7FCD" stroke-opacity="0.01" stroke-width="0.955198"/>
<rect x="251.081" y="382.079" width="47.7599" height="47.7599" stroke="#4B7FCD" stroke-opacity="0.01" stroke-width="0.955198"/>
<rect x="298.84" y="382.079" width="47.7599" height="47.7599" stroke="#4B7FCD" stroke-opacity="0.01" stroke-width="0.955198"/>
<rect x="346.6" y="382.079" width="47.7599" height="47.7599" stroke="#4B7FCD" stroke-opacity="0.01" stroke-width="0.955198"/>
<rect x="394.36" y="382.079" width="47.7599" height="47.7599" stroke="#4B7FCD" stroke-opacity="0.01" stroke-width="0.955198"/>
<rect x="442.12" y="382.079" width="47.7599" height="47.7599" stroke="#4B7FCD" stroke-opacity="0.01" stroke-width="0.955198"/>
<rect x="489.88" y="382.079" width="47.7599" height="47.7599" stroke="#4B7FCD" stroke-opacity="0.01" stroke-width="0.955198"/>
<rect x="537.64" y="382.079" width="47.7599" height="47.7599" stroke="#4B7FCD" stroke-opacity="0.01" stroke-width="0.955198"/>
<rect x="585.4" y="382.079" width="47.7599" height="47.7599" stroke="#4B7FCD" stroke-opacity="0.01" stroke-width="0.955198"/>
<rect x="633.16" y="382.079" width="47.7599" height="47.7599" stroke="#4B7FCD" stroke-opacity="0.01" stroke-width="0.955198"/>
<rect x="680.92" y="382.079" width="47.7599" height="47.7599" stroke="#4B7FCD" stroke-opacity="0.01" stroke-width="0.955198"/>
<rect x="728.679" y="382.079" width="47.7599" height="47.7599" stroke="#4B7FCD" stroke-opacity="0.01" stroke-width="0.955198"/>
<rect x="776.439" y="382.079" width="47.7599" height="47.7599" stroke="#4B7FCD" stroke-opacity="0.01" stroke-width="0.955198"/>
<rect x="824.199" y="382.079" width="47.7599" height="47.7599" stroke="#4B7FCD" stroke-opacity="0.01" stroke-width="0.955198"/>
<rect x="871.959" y="382.079" width="47.7599" height="47.7599" stroke="#4B7FCD" stroke-opacity="0.01" stroke-width="0.955198"/>
<rect x="919.719" y="382.079" width="47.7599" height="47.7599" stroke="#4B7FCD" stroke-opacity="0.01" stroke-width="0.955198"/>
<rect x="-35.4788" y="429.839" width="47.7599" height="47.7599" stroke="#4B7FCD" stroke-opacity="0.01" stroke-width="0.955198"/>
<rect x="12.2812" y="429.839" width="47.7599" height="47.7599" stroke="#4B7FCD" stroke-opacity="0.01" stroke-width="0.955198"/>
<rect x="60.041" y="429.839" width="47.7599" height="47.7599" stroke="#4B7FCD" stroke-opacity="0.01" stroke-width="0.955198"/>
<rect x="107.801" y="429.839" width="47.7599" height="47.7599" stroke="#4B7FCD" stroke-opacity="0.01" stroke-width="0.955198"/>
<rect x="155.561" y="429.839" width="47.7599" height="47.7599" stroke="#4B7FCD" stroke-opacity="0.01" stroke-width="0.955198"/>
<rect x="203.321" y="429.839" width="47.7599" height="47.7599" stroke="#4B7FCD" stroke-opacity="0.01" stroke-width="0.955198"/>
<rect x="251.081" y="429.839" width="47.7599" height="47.7599" stroke="#4B7FCD" stroke-opacity="0.01" stroke-width="0.955198"/>
<rect x="298.84" y="429.839" width="47.7599" height="47.7599" stroke="#4B7FCD" stroke-opacity="0.01" stroke-width="0.955198"/>
<rect x="346.6" y="429.839" width="47.7599" height="47.7599" stroke="#4B7FCD" stroke-opacity="0.01" stroke-width="0.955198"/>
<rect x="394.36" y="429.839" width="47.7599" height="47.7599" stroke="#4B7FCD" stroke-opacity="0.01" stroke-width="0.955198"/>
<rect x="442.12" y="429.839" width="47.7599" height="47.7599" stroke="#4B7FCD" stroke-opacity="0.01" stroke-width="0.955198"/>
<rect x="489.88" y="429.839" width="47.7599" height="47.7599" stroke="#4B7FCD" stroke-opacity="0.01" stroke-width="0.955198"/>
<rect x="537.64" y="429.839" width="47.7599" height="47.7599" stroke="#4B7FCD" stroke-opacity="0.01" stroke-width="0.955198"/>
<rect x="585.4" y="429.839" width="47.7599" height="47.7599" stroke="#4B7FCD" stroke-opacity="0.01" stroke-width="0.955198"/>
<rect x="633.16" y="429.839" width="47.7599" height="47.7599" stroke="#4B7FCD" stroke-opacity="0.01" stroke-width="0.955198"/>
<rect x="680.92" y="429.839" width="47.7599" height="47.7599" stroke="#4B7FCD" stroke-opacity="0.01" stroke-width="0.955198"/>
<rect x="728.679" y="429.839" width="47.7599" height="47.7599" stroke="#4B7FCD" stroke-opacity="0.01" stroke-width="0.955198"/>
<rect x="776.439" y="429.839" width="47.7599" height="47.7599" stroke="#4B7FCD" stroke-opacity="0.01" stroke-width="0.955198"/>
<rect x="824.199" y="429.839" width="47.7599" height="47.7599" stroke="#4B7FCD" stroke-opacity="0.01" stroke-width="0.955198"/>
<rect x="871.959" y="429.839" width="47.7599" height="47.7599" stroke="#4B7FCD" stroke-opacity="0.01" stroke-width="0.955198"/>
<rect x="919.719" y="429.839" width="47.7599" height="47.7599" stroke="#4B7FCD" stroke-opacity="0.01" stroke-width="0.955198"/>
<rect x="-35.4788" y="477.599" width="47.7599" height="47.7599" stroke="#4B7FCD" stroke-opacity="0.01" stroke-width="0.955198"/>
<rect x="12.2812" y="477.599" width="47.7599" height="47.7599" stroke="#4B7FCD" stroke-opacity="0.01" stroke-width="0.955198"/>
<rect x="60.041" y="477.599" width="47.7599" height="47.7599" stroke="#4B7FCD" stroke-opacity="0.01" stroke-width="0.955198"/>
<rect x="107.801" y="477.599" width="47.7599" height="47.7599" stroke="#4B7FCD" stroke-opacity="0.01" stroke-width="0.955198"/>
<rect x="155.561" y="477.599" width="47.7599" height="47.7599" stroke="#4B7FCD" stroke-opacity="0.01" stroke-width="0.955198"/>
<rect x="203.321" y="477.599" width="47.7599" height="47.7599" stroke="#4B7FCD" stroke-opacity="0.01" stroke-width="0.955198"/>
<rect x="251.081" y="477.599" width="47.7599" height="47.7599" stroke="#4B7FCD" stroke-opacity="0.01" stroke-width="0.955198"/>
<rect x="298.84" y="477.599" width="47.7599" height="47.7599" stroke="#4B7FCD" stroke-opacity="0.01" stroke-width="0.955198"/>
<rect x="346.6" y="477.599" width="47.7599" height="47.7599" stroke="#4B7FCD" stroke-opacity="0.01" stroke-width="0.955198"/>
<rect x="394.36" y="477.599" width="47.7599" height="47.7599" stroke="#4B7FCD" stroke-opacity="0.01" stroke-width="0.955198"/>
<rect x="442.12" y="477.599" width="47.7599" height="47.7599" stroke="#4B7FCD" stroke-opacity="0.01" stroke-width="0.955198"/>
<rect x="489.88" y="477.599" width="47.7599" height="47.7599" stroke="#4B7FCD" stroke-opacity="0.01" stroke-width="0.955198"/>
<rect x="537.64" y="477.599" width="47.7599" height="47.7599" stroke="#4B7FCD" stroke-opacity="0.01" stroke-width="0.955198"/>
<rect x="585.4" y="477.599" width="47.7599" height="47.7599" stroke="#4B7FCD" stroke-opacity="0.01" stroke-width="0.955198"/>
<rect x="633.16" y="477.599" width="47.7599" height="47.7599" stroke="#4B7FCD" stroke-opacity="0.01" stroke-width="0.955198"/>
<rect x="680.92" y="477.599" width="47.7599" height="47.7599" stroke="#4B7FCD" stroke-opacity="0.01" stroke-width="0.955198"/>
<rect x="728.679" y="477.599" width="47.7599" height="47.7599" stroke="#4B7FCD" stroke-opacity="0.01" stroke-width="0.955198"/>
<rect x="776.439" y="477.599" width="47.7599" height="47.7599" stroke="#4B7FCD" stroke-opacity="0.01" stroke-width="0.955198"/>
<rect x="824.199" y="477.599" width="47.7599" height="47.7599" stroke="#4B7FCD" stroke-opacity="0.01" stroke-width="0.955198"/>
<rect x="871.959" y="477.599" width="47.7599" height="47.7599" stroke="#4B7FCD" stroke-opacity="0.01" stroke-width="0.955198"/>
<rect x="919.719" y="477.599" width="47.7599" height="47.7599" stroke="#4B7FCD" stroke-opacity="0.01" stroke-width="0.955198"/>
<rect x="-35.4788" y="525.359" width="47.7599" height="47.7599" stroke="#4B7FCD" stroke-opacity="0.01" stroke-width="0.955198"/>
<rect x="12.2812" y="525.359" width="47.7599" height="47.7599" stroke="#4B7FCD" stroke-opacity="0.01" stroke-width="0.955198"/>
<rect x="60.041" y="525.359" width="47.7599" height="47.7599" stroke="#4B7FCD" stroke-opacity="0.01" stroke-width="0.955198"/>
<rect x="107.801" y="525.359" width="47.7599" height="47.7599" stroke="#4B7FCD" stroke-opacity="0.01" stroke-width="0.955198"/>
<rect x="155.561" y="525.359" width="47.7599" height="47.7599" stroke="#4B7FCD" stroke-opacity="0.01" stroke-width="0.955198"/>
<rect x="203.321" y="525.359" width="47.7599" height="47.7599" stroke="#4B7FCD" stroke-opacity="0.01" stroke-width="0.955198"/>
<rect x="251.081" y="525.359" width="47.7599" height="47.7599" stroke="#4B7FCD" stroke-opacity="0.01" stroke-width="0.955198"/>
<rect x="298.84" y="525.359" width="47.7599" height="47.7599" stroke="#4B7FCD" stroke-opacity="0.01" stroke-width="0.955198"/>
<rect x="346.6" y="525.359" width="47.7599" height="47.7599" stroke="#4B7FCD" stroke-opacity="0.01" stroke-width="0.955198"/>
<rect x="394.36" y="525.359" width="47.7599" height="47.7599" stroke="#4B7FCD" stroke-opacity="0.01" stroke-width="0.955198"/>
<rect x="442.12" y="525.359" width="47.7599" height="47.7599" stroke="#4B7FCD" stroke-opacity="0.01" stroke-width="0.955198"/>
<rect x="489.88" y="525.359" width="47.7599" height="47.7599" stroke="#4B7FCD" stroke-opacity="0.01" stroke-width="0.955198"/>
<rect x="537.64" y="525.359" width="47.7599" height="47.7599" stroke="#4B7FCD" stroke-opacity="0.01" stroke-width="0.955198"/>
<rect x="585.4" y="525.359" width="47.7599" height="47.7599" stroke="#4B7FCD" stroke-opacity="0.01" stroke-width="0.955198"/>
<rect x="633.16" y="525.359" width="47.7599" height="47.7599" stroke="#4B7FCD" stroke-opacity="0.01" stroke-width="0.955198"/>
<rect x="680.92" y="525.359" width="47.7599" height="47.7599" stroke="#4B7FCD" stroke-opacity="0.01" stroke-width="0.955198"/>
<rect x="728.679" y="525.359" width="47.7599" height="47.7599" stroke="#4B7FCD" stroke-opacity="0.01" stroke-width="0.955198"/>
<rect x="776.439" y="525.359" width="47.7599" height="47.7599" stroke="#4B7FCD" stroke-opacity="0.01" stroke-width="0.955198"/>
<rect x="824.199" y="525.359" width="47.7599" height="47.7599" stroke="#4B7FCD" stroke-opacity="0.01" stroke-width="0.955198"/>
<rect x="871.959" y="525.359" width="47.7599" height="47.7599" stroke="#4B7FCD" stroke-opacity="0.01" stroke-width="0.955198"/>
<rect x="919.719" y="525.359" width="47.7599" height="47.7599" stroke="#4B7FCD" stroke-opacity="0.01" stroke-width="0.955198"/>
<rect x="-587.924" y="-482.852" width="2052.58" height="1289.11" fill="url(#paint0_radial_3245_5405)" stroke="#0F1216" stroke-width="0.955198"/>
<g filter="url(#filter0_f_3245_5405)">
<ellipse cx="580.283" cy="-451.014" rx="466" ry="425.063" transform="rotate(-174.066 580.283 -451.014)" fill="#4D3589"/>
</g>
<g opacity="0.5" filter="url(#filter1_f_3245_5405)">
<ellipse cx="746.084" cy="-29.0659" rx="165.616" ry="99.0655" transform="rotate(-168.529 746.084 -29.0659)" fill="#0025CE"/>
</g>
<g opacity="0.5" filter="url(#filter2_f_3245_5405)">
<path d="M652.13 -52.1181C798.035 -42.6784 840.957 84.2634 891.799 81.4958C955.71 78.0167 945.738 -40.5605 894.527 -86.5106C834.164 -140.673 553.252 -58.5152 652.13 -52.1181Z" fill="#00EAFF"/>
</g>
<g filter="url(#filter3_f_3245_5405)">
<path d="M681.989 -76.0631C748.08 -57.2671 789.142 -83.5759 802.62 -130.968C830.744 -229.857 257.348 -430.935 145.548 -373.592C63.3852 -331.45 47.4396 -243.74 107.26 -193.973C174.862 -137.732 169.062 -131.334 252.747 -136.794C322.573 -141.35 404.45 -156.865 479.538 -156.099C549.82 -155.382 623.284 -92.7587 681.989 -76.0631Z" fill="#BADAFF"/>
</g>
</g>
<defs>
<filter id="filter0_f_3245_5405" x="-90.0155" y="-1081.26" width="1340.6" height="1260.49" filterUnits="userSpaceOnUse" color-interpolation-filters="sRGB">
<feFlood flood-opacity="0" result="BackgroundImageFix"/>
<feBlend mode="normal" in="SourceGraphic" in2="BackgroundImageFix" result="shape"/>
<feGaussianBlur stdDeviation="102.343" result="effect1_foregroundBlur_3245_5405"/>
</filter>
<filter id="filter1_f_3245_5405" x="296.009" y="-418.175" width="900.149" height="778.218" filterUnits="userSpaceOnUse" color-interpolation-filters="sRGB">
<feFlood flood-opacity="0" result="BackgroundImageFix"/>
<feBlend mode="normal" in="SourceGraphic" in2="BackgroundImageFix" result="shape"/>
<feGaussianBlur stdDeviation="143.28" result="effect1_foregroundBlur_3245_5405"/>
</filter>
<filter id="filter2_f_3245_5405" x="462.032" y="-274.098" width="643.551" height="524.844" filterUnits="userSpaceOnUse" color-interpolation-filters="sRGB">
<feFlood flood-opacity="0" result="BackgroundImageFix"/>
<feBlend mode="normal" in="SourceGraphic" in2="BackgroundImageFix" result="shape"/>
<feGaussianBlur stdDeviation="84.6032" result="effect1_foregroundBlur_3245_5405"/>
</filter>
<filter id="filter3_f_3245_5405" x="-56.7874" y="-511.709" width="988.422" height="569.772" filterUnits="userSpaceOnUse" color-interpolation-filters="sRGB">
<feFlood flood-opacity="0" result="BackgroundImageFix"/>
<feBlend mode="normal" in="SourceGraphic" in2="BackgroundImageFix" result="shape"/>
<feGaussianBlur stdDeviation="64.0068" result="effect1_foregroundBlur_3245_5405"/>
</filter>
<radialGradient id="paint0_radial_3245_5405" cx="0" cy="0" r="1" gradientUnits="userSpaceOnUse" gradientTransform="translate(438.368 161.701) rotate(90) scale(644.076 1025.81)">
<stop stop-color="#0F1216" stop-opacity="0"/>
<stop offset="0.833333" stop-color="#0F1216"/>
</radialGradient>
<clipPath id="clip0_3245_5405">
<rect width="932" height="545.827" fill="white"/>
</clipPath>
</defs>
</svg>
